<?xml version="1.0" standalone="no"?>
<!DOCTYPE svg PUBLIC "-//W3C//DTD SVG 20010904//EN"
 "http://www.w3.org/TR/2001/REC-SVG-20010904/DTD/svg10.dtd">
<svg version="1.0" xmlns="http://www.w3.org/2000/svg"
 width="585.000000pt" height="585.000000pt" viewBox="0 0 585.000000 585.000000"
 preserveAspectRatio="xMidYMid meet">
<metadata>
Created by potrace 1.11, written by Peter Selinger 2001-2013
</metadata>
<g transform="translate(0.000000,585.000000) scale(0.100000,-0.100000)"
fill="#000000" stroke="none">
<path d="M5030 4344 c-142 -24 -304 -59 -381 -82 -320 -97 -599 -257 -859
-492 -32 -28 -29 -27 26 9 186 122 411 234 596 297 82 28 468 113 658 145 74
12 136 23 138 25 2 1 -12 24 -31 51 -31 44 -37 48 -78 49 -24 1 -55 0 -69 -2z"/>
<path d="M847 4256 c-15 -18 -23 -36 -20 -40 4 -3 27 -6 53 -6 105 0 415 -71
568 -130 138 -53 441 -221 671 -371 44 -29 43 -27 -19 31 -130 123 -384 302
-540 380 -166 84 -366 142 -549 160 -140 14 -135 14 -164 -24z"/>
<path d="M5185 4124 c-242 -31 -648 -121 -862 -190 -270 -87 -598 -308 -791
-532 l-49 -57 12 -78 c7 -42 14 -79 17 -82 14 -14 579 168 907 292 79 30 145
52 148 49 3 -2 -33 -22 -79 -44 -45 -22 -175 -84 -288 -137 -270 -128 -662
-324 -677 -338 -6 -7 -15 -39 -18 -72 -7 -56 -5 -63 20 -93 27 -32 224 -174
433 -311 61 -41 110 -76 108 -78 -6 -6 -334 127 -455 183 -52 24 -95 43 -96
42 -2 -2 -7 -48 -13 -103 l-10 -100 56 -59 c244 -251 594 -525 797 -621 171
-81 538 -186 855 -244 85 -16 156 -28 157 -27 7 6 130 478 167 641 124 551
129 729 30 1210 -39 188 -127 541 -168 678 -32 101 -13 95 -201 71z"/>
<path d="M604 4093 c-81 -192 -189 -526 -239 -740 -112 -482 -98 -792 62
-1323 25 -83 147 -419 164 -451 7 -15 16 -15 96 -2 273 43 593 139 809 242
184 88 606 375 920 627 11 9 10 26 -3 107 l-16 97 -33 0 c-34 0 -384 -97 -451
-125 -68 -28 -45 -7 44 41 138 75 348 201 382 230 l31 26 -6 122 c-5 101 -9
124 -25 137 -27 24 -200 90 -499 190 -276 92 -282 99 -40 42 259 -61 554 -111
563 -96 3 5 8 40 12 79 l7 71 -83 72 c-225 195 -497 370 -741 478 -281 124
-646 213 -869 213 l-69 0 -16 -37z"/>
<path d="M2615 3363 c-88 -8 -161 -16 -163 -17 -10 -10 -22 -204 -22 -356 0
-188 6 -243 46 -417 l26 -113 41 -11 c115 -31 317 -29 693 7 l182 18 6 50 c32
279 32 558 1 723 l-17 91 -82 11 c-250 35 -443 38 -711 14z"/>
</g>
</svg>
